<?xml version="1.0" encoding="iso-8859-1"?>
<!-- Generator: Adobe Illustrator 19.0.0, SVG Export Plug-In . SVG Version: 6.00 Build 0)  -->
<svg version="1.1" id="Layer_1" xmlns="http://www.w3.org/2000/svg" xmlns:xlink="http://www.w3.org/1999/xlink" x="0px" y="0px"
	 viewBox="0 0 512 512" style="enable-background:new 0 0 512 512;" xml:space="preserve">
<g>
	<g>
		<g>
			<path d="M490.667,341.333v-256c0-23.558-19.109-42.667-42.667-42.667H64c-23.558,0-42.667,19.109-42.667,42.667v256
				C9.551,341.333,0,350.885,0,362.667v64c0,23.558,19.109,42.667,42.667,42.667h426.667c23.558,0,42.667-19.109,42.667-42.667v-64
				C512,350.885,502.449,341.333,490.667,341.333z M64,85.333h384v256H320c-5.658,0-11.084,2.248-15.085,6.248l-15.085,15.085
				h-67.66l-15.085-15.085c-4.001-4.001-9.427-6.248-15.085-6.248H64V85.333z M469.333,426.667H42.667V384h140.497l15.085,15.085
				c4.001,4.001,9.427,6.248,15.085,6.248h85.333c5.658,0,11.084-2.248,15.085-6.248L328.837,384h140.497V426.667z"/>
			<path d="M199.697,239.136c-2.304-3.84-7.275-5.099-11.093-2.816c-3.904,2.325-7.957,3.499-12.053,3.499
				c-13.376,0-24.277-10.901-24.277-24.277c0-13.397,10.901-24.277,24.277-24.277c4.096,0,8.149,1.173,12.053,3.499
				c3.819,2.283,8.789,1.024,11.093-2.816c2.283-3.84,1.024-8.811-2.816-11.093c-6.443-3.84-13.269-5.781-20.331-5.781
				c-22.315,0-40.469,18.155-40.469,40.469c0,22.315,18.155,40.448,40.469,40.448c7.061,0,13.888-1.92,20.331-5.76
				C200.721,247.947,201.98,242.976,199.697,239.136z"/>
			<path d="M257.478,239.819h-12.843c-5.205,0-10.112-2.027-13.803-5.739c-3.179-3.136-8.299-3.157-11.456,0.021
				c-3.157,3.157-3.157,8.277,0,11.435c6.763,6.741,15.723,10.453,25.259,10.453h12.843c13.376,0,24.277-10.88,24.277-24.256
				c0-13.397-10.901-24.277-24.277-24.277h-8.107h-8.085c-4.459,0-8.085-3.648-8.085-8.107c0-4.459,3.627-8.085,8.085-8.085h12.843
				c5.205,0,10.112,2.027,13.803,5.717c3.157,3.157,8.277,3.157,11.435,0c3.179-3.157,3.179-8.277,0-11.435
				c-6.741-6.763-15.701-10.475-25.237-10.475h-12.843c-13.376,0-24.277,10.901-24.277,24.277c0,13.397,10.901,24.277,24.277,24.277
				h8.085h8.107c4.459,0,8.085,3.627,8.085,8.107C265.564,236.192,261.937,239.819,257.478,239.819z"/>
			<path d="M322.199,223.639h8.107h8.085c4.459,0,8.085,3.627,8.085,8.085s-3.627,8.085-8.085,8.085h-12.843
				c-5.205,0-10.112-2.027-13.803-5.717c-3.157-3.157-8.277-3.157-11.435,0c-3.179,3.157-3.179,8.277,0,11.456
				c6.741,6.741,15.701,10.453,25.237,10.453h12.843c13.397,0,24.277-10.901,24.277-24.277c0-13.397-10.88-24.277-24.277-24.277
				h-8.085h-8.107c-4.459,0-8.085-3.627-8.085-8.085s3.627-8.107,8.085-8.107h12.843c5.205,0,10.112,2.048,13.803,5.739
				c3.179,3.157,8.299,3.157,11.456,0c3.157-3.179,3.157-8.299,0-11.456c-6.763-6.741-15.723-10.453-25.259-10.453h-12.843
				c-13.376,0-24.277,10.88-24.277,24.277C297.922,212.738,308.823,223.639,322.199,223.639z"/>
		</g>
	</g>
</g>
<g>
</g>
<g>
</g>
<g>
</g>
<g>
</g>
<g>
</g>
<g>
</g>
<g>
</g>
<g>
</g>
<g>
</g>
<g>
</g>
<g>
</g>
<g>
</g>
<g>
</g>
<g>
</g>
<g>
</g>
</svg>
