<?xml version="1.0" encoding="iso-8859-1"?>
<!-- Generator: Adobe Illustrator 19.0.0, SVG Export Plug-In . SVG Version: 6.00 Build 0)  -->
<svg version="1.1" id="Capa_1" xmlns="http://www.w3.org/2000/svg" xmlns:xlink="http://www.w3.org/1999/xlink" x="0px" y="0px"
	 viewBox="0 0 360 360" style="enable-background:new 0 0 360 360;" xml:space="preserve">
<g id="XMLID_1059_">
	<path id="XMLID_1060_" d="M344.526,122.272h-49.053V77.834L212.451,0H15.474v360h280v-55h49.053V122.272z M314.526,275h-210
		V152.273h210V275z"/>
	<polygon id="XMLID_1063_" points="126.262,214.336 148.802,214.336 148.802,235.546 158.393,235.546 158.393,185.846 
		148.802,185.846 148.802,205.936 126.262,205.936 126.262,185.846 116.603,185.846 116.603,235.546 126.262,235.546 	"/>
	<polygon id="XMLID_1064_" points="180.441,235.546 190.031,235.546 190.031,194.316 205.922,194.316 205.922,185.846 
		164.552,185.846 164.552,194.316 180.441,194.316 	"/>
	<polygon id="XMLID_1065_" points="221.74,202.646 234.551,227.146 239.801,227.146 252.61,202.646 252.61,235.546 262.271,235.546 
		262.271,185.846 251.98,185.846 237.141,214.126 222.44,185.846 212.081,185.846 212.081,235.546 221.74,235.546 	"/>
	<polygon id="XMLID_1066_" points="307.63,227.076 282.29,227.076 282.29,185.846 272.63,185.846 272.63,235.546 307.63,235.546 	
		"/>
</g>
<g>
</g>
<g>
</g>
<g>
</g>
<g>
</g>
<g>
</g>
<g>
</g>
<g>
</g>
<g>
</g>
<g>
</g>
<g>
</g>
<g>
</g>
<g>
</g>
<g>
</g>
<g>
</g>
<g>
</g>
</svg>
