<?xml version="1.0" encoding="iso-8859-1"?>
<!-- Generator: Adobe Illustrator 18.0.0, SVG Export Plug-In . SVG Version: 6.00 Build 0)  -->
<!DOCTYPE svg PUBLIC "-//W3C//DTD SVG 1.1//EN" "http://www.w3.org/Graphics/SVG/1.1/DTD/svg11.dtd">
<svg version="1.1" id="Capa_1" xmlns="http://www.w3.org/2000/svg" xmlns:xlink="http://www.w3.org/1999/xlink" x="0px" y="0px"
	 viewBox="0 0 390.421 390.421" style="enable-background:new 0 0 390.421 390.421;" xml:space="preserve">
<g>
	<path d="M62.827,88.848c-20.333,0-36.874,16.543-36.874,36.877c0,20.333,16.542,36.874,36.874,36.874
		c20.335,0,36.878-16.542,36.878-36.874C99.704,105.391,83.161,88.848,62.827,88.848z M93.443,113.091
		c-2.899-2.74-6.712-5.068-11.165-6.817c-1.749-4.453-4.077-8.265-6.816-11.165C83.58,98.473,90.079,104.972,93.443,113.091z
		 M85.665,129.408c0.076-1.212,0.116-2.439,0.116-3.683c0-1.246-0.039-2.479-0.116-3.694c5.882,1.056,9.408,2.376,10.278,3.35
		c0.002,0.115,0.009,0.229,0.009,0.344c0,0.09-0.006,0.179-0.007,0.268C95.078,127.004,91.552,128.343,85.665,129.408z
		 M63.096,158.84c-0.09,0.001-0.179,0.007-0.269,0.007c-0.09,0-0.178-0.006-0.268-0.007c-1.011-0.867-2.351-4.392-3.416-10.279
		c1.212,0.076,2.44,0.116,3.684,0.116c1.244,0,2.474-0.04,3.687-0.116C65.447,154.45,64.107,157.974,63.096,158.84z M62.827,145.288
		c-1.435,0-2.846-0.059-4.233-0.163c-0.432-3.076-0.782-6.634-0.996-10.641c1.84,0.059,3.603,0.086,5.229,0.086
		c1.627,0,3.392-0.027,5.232-0.086c-0.213,4.007-0.564,7.566-0.996,10.641C65.674,145.229,64.263,145.288,62.827,145.288z
		 M62.827,131.181c-1.863,0-3.653-0.03-5.372-0.084c-0.054-1.72-0.084-3.509-0.084-5.372c0-1.864,0.03-3.654,0.084-5.375
		c1.72-0.054,3.509-0.084,5.372-0.084c1.864,0,3.654,0.03,5.375,0.084c0.055,1.721,0.085,3.511,0.085,5.375
		c0,1.863-0.03,3.652-0.084,5.372C66.481,131.151,64.691,131.181,62.827,131.181z M29.713,126.068
		c-0.001-0.115-0.009-0.228-0.009-0.343c0-0.09,0.006-0.179,0.007-0.269c0.867-1.011,4.393-2.351,10.279-3.417
		c-0.076,1.213-0.116,2.441-0.116,3.686c0,1.246,0.04,2.477,0.116,3.692C34.109,128.361,30.583,127.041,29.713,126.068z
		 M43.263,125.725c0-1.436,0.06-2.847,0.164-4.235c3.076-0.432,6.634-0.783,10.642-0.996c-0.059,1.84-0.086,3.604-0.086,5.231
		c0,1.626,0.027,3.39,0.086,5.229c-4.007-0.213-7.565-0.563-10.641-0.992C43.323,128.574,43.263,127.162,43.263,125.725z
		 M62.483,92.609c0.115-0.001,0.229-0.009,0.344-0.009c0.09,0,0.179,0.006,0.27,0.007c1.011,0.867,2.351,4.393,3.416,10.28
		c-1.212-0.076-2.441-0.116-3.686-0.116c-1.246,0-2.477,0.04-3.691,0.116C60.191,97.005,61.51,93.479,62.483,92.609z M62.827,106.16
		c1.436,0,2.848,0.06,4.236,0.164c0.432,3.075,0.782,6.633,0.995,10.64c-1.84-0.059-3.604-0.086-5.231-0.086
		c-1.627,0-3.39,0.027-5.229,0.086c0.213-4.007,0.563-7.564,0.992-10.64C59.978,106.219,61.39,106.16,62.827,106.16z
		 M71.588,120.493c4.007,0.213,7.565,0.563,10.64,0.992c0.104,1.39,0.164,2.803,0.164,4.24c0,1.435-0.06,2.846-0.164,4.233
		c-3.075,0.432-6.633,0.782-10.64,0.996c0.059-1.839,0.086-3.603,0.086-5.229C71.675,124.098,71.647,122.334,71.588,120.493z
		 M85.334,118.521c-0.351-2.804-0.905-5.49-1.632-8.026c5.644,2.675,9.772,6.407,11.512,10.68
		C92.674,120.033,89.206,119.165,85.334,118.521z M81.857,118.009c-3.406-0.436-6.981-0.727-10.41-0.904
		c-0.177-3.429-0.468-7.003-0.904-10.41c3.26,0.456,6.335,1.193,9.146,2.167C80.663,111.675,81.401,114.749,81.857,118.009z
		 M70.032,103.218c-0.645-3.872-1.512-7.339-2.654-9.88c4.273,1.74,8.005,5.869,10.68,11.512
		C75.521,104.123,72.835,103.568,70.032,103.218z M58.278,93.337c-1.142,2.541-2.009,6.009-2.653,9.881
		c-2.805,0.351-5.491,0.905-8.026,1.632C50.273,99.205,54.004,95.077,58.278,93.337z M55.113,106.695
		c-0.436,3.407-0.727,6.981-0.904,10.41c-3.429,0.178-7.004,0.468-10.411,0.904c0.456-3.26,1.193-6.334,2.167-9.146
		C48.778,107.888,51.853,107.151,55.113,106.695z M40.321,118.521c-3.871,0.645-7.339,1.512-9.879,2.653
		c1.74-4.272,5.868-8.004,11.511-10.679C41.226,113.031,40.671,115.717,40.321,118.521z M40.321,132.927
		c0.35,2.804,0.905,5.49,1.631,8.026c-5.644-2.675-9.771-6.407-11.511-10.679C32.982,131.415,36.449,132.283,40.321,132.927z
		 M43.798,133.438c3.406,0.437,6.981,0.727,10.41,0.904c0.178,3.429,0.468,7.004,0.904,10.411c-3.26-0.457-6.335-1.193-9.147-2.168
		C44.991,139.773,44.254,136.698,43.798,133.438z M55.625,148.23c0.645,3.872,1.512,7.339,2.653,9.88
		c-4.274-1.74-8.005-5.868-10.68-11.511C50.133,147.326,52.82,147.88,55.625,148.23z M67.377,158.11
		c1.142-2.541,2.01-6.008,2.654-9.879c2.804-0.351,5.49-0.905,8.025-1.632C75.382,152.242,71.65,156.37,67.377,158.11z
		 M70.543,144.753c0.436-3.407,0.727-6.982,0.904-10.411c3.429-0.178,7.003-0.468,10.41-0.904c-0.456,3.26-1.193,6.336-2.167,9.148
		C76.877,143.56,73.803,144.296,70.543,144.753z M85.334,132.927c3.872-0.645,7.34-1.512,9.881-2.653
		c-1.74,4.272-5.868,8.004-11.513,10.679C84.43,138.417,84.984,135.731,85.334,132.927z M50.193,95.11
		c-2.739,2.899-5.067,6.712-6.816,11.165c-4.452,1.749-8.264,4.077-11.164,6.816C35.577,104.972,42.075,98.473,50.193,95.11z
		 M32.213,138.358c2.899,2.74,6.712,5.067,11.164,6.816c1.749,4.452,4.076,8.264,6.815,11.163
		C42.075,152.975,35.576,146.476,32.213,138.358z M75.462,156.337c2.74-2.899,5.067-6.711,6.816-11.163
		c4.453-1.749,8.266-4.077,11.165-6.816C90.079,146.476,83.58,152.975,75.462,156.337z"/>
	<path d="M377.604,323.542h-2.799V192.295c0-3.986-3.231-7.217-7.217-7.217H321.21v-65.934c0-19.299-15.701-35-35-35H125.656V48.322
		c0-3.908-3.169-7.075-7.076-7.075H7.076C3.169,41.246,0,44.414,0,48.322v154.805c0,3.909,3.169,7.075,7.076,7.075H69.21v37.074
		c0,19.299,15.701,35,35,35H156v41.267h-2.799c-7.079,0-12.817,5.738-12.817,12.816c0,7.078,5.739,12.816,12.817,12.816h224.403
		c7.079,0,12.817-5.738,12.817-12.816C390.421,329.281,384.683,323.542,377.604,323.542z M12.565,53.812h100.525v131.404H12.565
		V53.812z M156,192.295v69.98h-51.79c-8.271,0-15-6.729-15-15v-37.074h29.37c3.907,0,7.076-3.166,7.076-7.075v-98.981H286.21
		c8.271,0,15,6.729,15,15v65.934H163.217C159.231,185.079,156,188.309,156,192.295z M272.168,340.079h-13.531
		c-2.055,0-3.72-1.667-3.72-3.722c0-2.055,1.665-3.721,3.72-3.721h13.531c2.055,0,3.72,1.666,3.72,3.721
		C275.888,338.413,274.223,340.079,272.168,340.079z M360.823,326.979H169.98v-127.92h190.843V326.979z"/>
	<path d="M265.401,307.4c26.399,0,47.877-21.477,47.877-47.875c0-26.399-21.478-47.876-47.877-47.876
		c-26.398,0-47.875,21.477-47.875,47.876C217.526,285.923,239.003,307.4,265.401,307.4z M225.656,275.928
		c3.764,3.557,8.713,6.579,14.494,8.849c2.27,5.781,5.292,10.73,8.849,14.494C238.459,294.905,230.022,286.468,225.656,275.928z
		 M235.752,254.741c-0.099,1.574-0.15,3.169-0.15,4.784c0,1.614,0.052,3.209,0.15,4.782c-7.644-1.384-12.22-3.122-13.345-4.435
		c-0.001-0.116-0.009-0.231-0.009-0.347c0-0.117,0.008-0.232,0.009-0.348C223.532,257.864,228.107,256.125,235.752,254.741z
		 M265.054,216.529c0.116-0.001,0.23-0.009,0.347-0.009s0.232,0.008,0.348,0.009c1.313,1.125,3.053,5.701,4.437,13.346
		c-1.574-0.099-3.17-0.15-4.785-0.15c-1.614,0-3.21,0.052-4.783,0.15C262.001,222.23,263.741,217.655,265.054,216.529z
		 M265.401,234.124c1.864,0,3.697,0.078,5.499,0.212c0.561,3.993,1.016,8.613,1.293,13.815c-2.39-0.076-4.68-0.112-6.792-0.112
		c-2.112,0-4.401,0.036-6.79,0.112c0.277-5.203,0.732-9.822,1.293-13.815C261.706,234.202,263.538,234.124,265.401,234.124z
		 M265.401,252.439c2.42,0,4.745,0.039,6.978,0.109c0.07,2.233,0.109,4.558,0.109,6.977c0,2.418-0.039,4.742-0.109,6.975
		c-2.234,0.07-4.559,0.109-6.978,0.109c-2.419,0-4.744-0.039-6.977-0.109c-0.07-2.233-0.109-4.556-0.109-6.975
		c0-2.419,0.039-4.743,0.109-6.977C260.658,252.478,262.982,252.439,265.401,252.439z M308.398,259.177
		c0.001,0.116,0.009,0.231,0.009,0.348c0,0.116-0.008,0.231-0.009,0.347c-1.126,1.313-5.702,3.051-13.346,4.435
		c0.099-1.573,0.15-3.168,0.15-4.782c0-1.614-0.052-3.21-0.15-4.784C302.697,256.125,307.273,257.864,308.398,259.177z
		 M290.804,259.525c0,1.863-0.078,3.694-0.212,5.496c-3.993,0.56-8.612,1.016-13.815,1.293c0.076-2.388,0.112-4.677,0.112-6.788
		c0-2.112-0.036-4.401-0.112-6.791c5.203,0.277,9.822,0.732,13.815,1.293C290.726,255.829,290.804,257.662,290.804,259.525z
		 M265.75,302.52c-0.117,0.001-0.232,0.009-0.348,0.009s-0.231-0.008-0.347-0.009c-1.313-1.126-3.052-5.701-4.436-13.345
		c1.574,0.099,3.169,0.15,4.783,0.15c1.615,0,3.211-0.052,4.785-0.15C268.803,296.82,267.063,301.395,265.75,302.52z
		 M265.401,284.926c-1.863,0-3.695-0.078-5.497-0.212c-0.561-3.994-1.016-8.614-1.293-13.817c2.389,0.076,4.679,0.112,6.79,0.112
		c2.112,0,4.403-0.036,6.792-0.112c-0.277,5.204-0.732,9.824-1.293,13.817C269.098,284.848,267.265,284.926,265.401,284.926z
		 M254.028,266.313c-5.203-0.277-9.822-0.732-13.815-1.293c-0.135-1.801-0.212-3.633-0.212-5.496c0-1.863,0.078-3.695,0.212-5.498
		c3.993-0.561,8.612-1.016,13.815-1.293c-0.076,2.389-0.112,4.679-0.112,6.791C253.917,261.636,253.952,263.925,254.028,266.313z
		 M236.181,268.875c0.455,3.641,1.175,7.129,2.119,10.422c-7.328-3.473-12.688-8.319-14.946-13.867
		C226.653,266.913,231.155,268.039,236.181,268.875z M240.696,269.539c4.423,0.566,9.064,0.943,13.516,1.174
		c0.23,4.453,0.608,9.095,1.175,13.518c-4.232-0.592-8.225-1.549-11.876-2.814C242.245,277.765,241.288,273.772,240.696,269.539z
		 M256.05,288.746c0.837,5.026,1.962,9.527,3.445,12.826c-5.547-2.259-10.392-7.618-13.865-14.945
		C248.922,287.57,252.409,288.29,256.05,288.746z M271.309,301.572c1.483-3.299,2.608-7.801,3.445-12.827
		c3.641-0.455,7.129-1.175,10.42-2.119C281.702,293.954,276.856,299.313,271.309,301.572z M275.418,284.23
		c0.566-4.423,0.944-9.065,1.175-13.517c4.451-0.23,9.093-0.608,13.516-1.174c-0.593,4.233-1.55,8.227-2.814,11.878
		C283.643,282.681,279.651,283.638,275.418,284.23z M294.624,268.875c5.026-0.837,9.528-1.962,12.827-3.445
		c-2.258,5.548-7.618,10.394-14.946,13.867C293.448,276.004,294.168,272.516,294.624,268.875z M294.624,250.173
		c-0.456-3.641-1.175-7.128-2.119-10.42c7.328,3.473,12.688,8.318,14.945,13.866C304.151,252.136,299.649,251.01,294.624,250.173z
		 M290.108,249.509c-4.422-0.566-9.064-0.943-13.516-1.174c-0.23-4.452-0.608-9.093-1.174-13.516
		c4.232,0.592,8.225,1.549,11.876,2.814C288.559,241.285,289.516,245.277,290.108,249.509z M274.754,230.305
		c-0.837-5.026-1.963-9.529-3.445-12.828c5.548,2.259,10.393,7.619,13.866,14.946C281.883,231.48,278.396,230.76,274.754,230.305z
		 M259.495,217.477c-1.482,3.299-2.608,7.801-3.445,12.828c-3.641,0.455-7.128,1.175-10.42,2.119
		C249.102,225.096,253.947,219.736,259.495,217.477z M255.386,234.819c-0.566,4.423-0.944,9.064-1.174,13.516
		c-4.452,0.23-9.093,0.607-13.516,1.174c0.592-4.232,1.549-8.225,2.814-11.876C247.161,236.369,251.153,235.412,255.386,234.819z
		 M236.181,250.173c-5.026,0.837-9.528,1.963-12.827,3.445c2.259-5.548,7.619-10.393,14.946-13.866
		C237.356,243.044,236.637,246.533,236.181,250.173z M281.806,299.27c3.557-3.764,6.578-8.713,8.849-14.493
		c5.781-2.271,10.73-5.292,14.494-8.849C300.783,286.467,292.345,294.904,281.806,299.27z M305.149,243.122
		c-3.764-3.557-8.713-6.579-14.494-8.85c-2.27-5.781-5.292-10.73-8.849-14.494C292.345,224.145,300.783,232.583,305.149,243.122z
		 M248.999,219.778c-3.557,3.764-6.579,8.713-8.849,14.495c-5.781,2.27-10.73,5.292-14.494,8.849
		C230.022,232.581,238.459,224.144,248.999,219.778z"/>
</g>
<g>
</g>
<g>
</g>
<g>
</g>
<g>
</g>
<g>
</g>
<g>
</g>
<g>
</g>
<g>
</g>
<g>
</g>
<g>
</g>
<g>
</g>
<g>
</g>
<g>
</g>
<g>
</g>
<g>
</g>
</svg>
