<?xml version="1.0" encoding="iso-8859-1"?>
<!-- Generator: Adobe Illustrator 18.1.1, SVG Export Plug-In . SVG Version: 6.00 Build 0)  -->
<svg version="1.1" id="Capa_1" xmlns="http://www.w3.org/2000/svg" xmlns:xlink="http://www.w3.org/1999/xlink" x="0px" y="0px"
	 viewBox="0 0 612 612" style="enable-background:new 0 0 612 612;" xml:space="preserve">
<g>
	<path d="M583.395,267.427L323.019,7.049C318.507,2.535,312.385,0,306,0c-6.385,0-12.506,2.535-17.018,7.049L28.604,267.427
		c-6.884,6.884-8.943,17.236-5.217,26.229c3.726,8.995,12.501,14.857,22.235,14.857h42.637v279.419
		c0,13.293,10.777,24.068,24.07,24.068h387.347c13.293,0,24.07-10.775,24.07-24.068V308.514h42.635
		c9.734,0,18.512-5.863,22.235-14.857C592.338,284.663,590.279,274.311,583.395,267.427z M362.161,535.718h-112.32V408.359
		c0-28.383,23.005-51.377,51.377-51.377h9.564c28.375,0,51.377,22.996,51.377,51.377v127.359H362.161z"/>
</g>
<g>
</g>
<g>
</g>
<g>
</g>
<g>
</g>
<g>
</g>
<g>
</g>
<g>
</g>
<g>
</g>
<g>
</g>
<g>
</g>
<g>
</g>
<g>
</g>
<g>
</g>
<g>
</g>
<g>
</g>
</svg>
